<svg xmlns="http://www.w3.org/2000/svg" xmlns:xlink="http://www.w3.org/1999/xlink" width="585" zoomAndPan="magnify" viewBox="0 0 438.75 767.999994" height="1024" preserveAspectRatio="xMidYMid meet" version="1.0"><defs><clipPath id="e664a18b22"><path d="M 0 0.21875 L 438.5 0.21875 L 438.5 356 L 0 356 Z M 0 0.21875 " clip-rule="nonzero"/></clipPath><clipPath id="a2e5643942"><path d="M -264.332031 -57.132812 L 531.738281 -280.382812 L 660.664062 179.359375 L -135.402344 402.609375 Z M -264.332031 -57.132812 " clip-rule="nonzero"/></clipPath><clipPath id="b9f7c624c8"><path d="M -264.332031 -57.132812 L 531.738281 -280.382812 L 660.664062 179.359375 L -135.402344 402.609375 Z M -264.332031 -57.132812 " clip-rule="nonzero"/></clipPath><clipPath id="b9238b6eb0"><path d="M 0 416 L 438.5 416 L 438.5 767.78125 L 0 767.78125 Z M 0 416 " clip-rule="nonzero"/></clipPath></defs><g clip-path="url(#e664a18b22)"><g clip-path="url(#a2e5643942)"><g clip-path="url(#b9f7c624c8)"><path fill="#ff05ff" d="M -263.890625 -57.257812 L 531.609375 -280.34375 C 556.277344 -133.003906 447.460938 -192.871094 386.324219 -82.714844 C 273.347656 120.757812 113.410156 19.238281 94.882812 181.320312 C 76.351562 343.40625 -148.128906 355.523438 -148.128906 355.523438 Z M -263.890625 -57.257812 " fill-opacity="1" fill-rule="nonzero"/></g></g></g><g clip-path="url(#b9238b6eb0)"><path fill="#ff05ff" d="M -32.03125 870.878906 C -32.03125 870.878906 -38.023438 689.582031 146.265625 700.070312 C 330.558594 710.558594 295.351562 609.421875 431.695312 581.703125 C 568.042969 553.984375 508.859375 502.292969 618.238281 447.605469 C 727.613281 392.914062 766.570312 428.125 766.570312 428.125 L 761.324219 878.367188 Z M -32.03125 870.878906 " fill-opacity="1" fill-rule="nonzero"/></g></svg>